<?xml version="1.0" standalone="no"?>
<!DOCTYPE svg PUBLIC "-//W3C//DTD SVG 20010904//EN"
 "http://www.w3.org/TR/2001/REC-SVG-20010904/DTD/svg10.dtd">
<svg version="1.0" xmlns="http://www.w3.org/2000/svg"
 width="120.000000pt" height="120.000000pt" viewBox="0 0 120.000000 120.000000"
 preserveAspectRatio="xMidYMid meet">
<metadata>
Created by potrace 1.11, written by Peter Selinger 2001-2013
</metadata>
<g transform="translate(0.000000,120.000000) scale(0.100000,-0.100000)"
fill="#000000" stroke="none">
<path d="M570 1102 l-54 -75 -9 29 c-5 16 -9 37 -9 47 1 9 -3 17 -7 17 -14 0
-92 -126 -118 -191 -84 -207 4 -452 184 -514 l38 -13 -1 -79 c-1 -43 -3 -96
-4 -118 l-1 -40 -13 35 c-51 137 -125 222 -249 283 -73 37 -268 110 -274 103
-2 -1 18 -20 44 -41 64 -52 242 -230 280 -280 62 -82 102 -145 132 -204 l31
-61 68 0 67 1 39 80 c25 51 62 105 103 149 69 75 211 176 286 205 26 10 45 21
42 25 -5 8 -142 5 -184 -4 -125 -27 -239 -100 -272 -175 -8 -17 -16 -31 -19
-31 -4 0 -6 116 -2 148 1 6 9 12 17 12 9 0 35 10 58 21 126 64 199 237 173
407 -9 57 -52 154 -99 225 -39 57 -56 65 -58 24 -2 -63 -14 -60 -64 12 -28 39
-55 72 -60 75 -6 2 -35 -30 -65 -72z"/>
</g>
</svg>
